<svg xmlns="http://www.w3.org/2000/svg" viewBox="0 0 597.88 597.31"><g id="Capa_2" data-name="Capa 2"><g id="Capa_1-2" data-name="Capa 1"><g id="Grupo_140" data-name="Grupo 140"><g id="noun_connections_1593255" data-name="noun connections 1593255"><g id="Grupo_69" data-name="Grupo 69"><path id="Trazado_1132" data-name="Trazado 1132" d="M80.74,114.35,205.24,28a12.65,12.65,0,1,1,23.1-10.3,22.5,22.5,0,0,1,.8,2.4c12.1-.4,24.3-.9,36.4-1.3a23.22,23.22,0,0,1,45.2-1.6l40.2-1.4a12.28,12.28,0,0,1,24.4,1.9,10.88,10.88,0,0,1-.7,4q61.65,35.55,123.2,71.1a12.57,12.57,0,0,1,3.3-.5,11.18,11.18,0,0,1,11.2,11.2,9.89,9.89,0,0,1-.4,3l44.5,65.3a22.12,22.12,0,0,1,19.5,39.7,26.71,26.71,0,0,1-3.6,1.4q7.65,58.2,15.3,116.3a11.27,11.27,0,0,1-.9,22.5,13.55,13.55,0,0,1-2-.2q-23.7,62.55-47.4,125a6.55,6.55,0,0,1,1.8,1.5,11.25,11.25,0,0,1-14.9,16.8q-63.15,40.95-126.4,81.9a11.24,11.24,0,0,1-21,8,5.73,5.73,0,0,1-.4-1.4l-107.8,6.6a11.23,11.23,0,0,1-21.8-3.8h0l-44.7-19.5a11.25,11.25,0,0,1-19.1-8v-.3l-44.9-19.6-52.4-48a11.25,11.25,0,0,1-14.5-17.1l-38-58A23.64,23.64,0,0,1,14,372.35a23.94,23.94,0,0,1,4.3-1.4c-2.3-21.2-4.7-42.4-7-63.6q7.05-46.05,14.1-92.2a11.32,11.32,0,0,1,.2-15.9,11.06,11.06,0,0,1,6.4-3.1c10.2-20.7,20.5-41.4,30.7-62.1a13,13,0,0,1-2.3-1.8,13.36,13.36,0,0,1,18.9-18.9,3.54,3.54,0,0,1,1.4,1Zm-49.6,297.3L26,404a9.74,9.74,0,0,1-2.4.2A11.18,11.18,0,0,1,12.44,393a9.48,9.48,0,0,1,3.6-7.7,12,12,0,0,1,4.1-2l-.8-7.6a18.93,18.93,0,0,0,9.3,36.7,18.24,18.24,0,0,0,2.5-.7Zm-7-41.3a23.61,23.61,0,0,1,16.7,6.9,24.61,24.61,0,0,1,3.9,5.1l84.6-47.4a16.51,16.51,0,0,1,2.1-13.5L36,218.35a14.92,14.92,0,0,1-2.1.2,11.48,11.48,0,0,1-3.7-.6l-13.7,89.5,7,62.9Zm22.5,16.4a23.67,23.67,0,0,1-5.8,24,37.27,37.27,0,0,1-3,2.6l37.8,57.8a11.25,11.25,0,0,1,4-.7,11.12,11.12,0,0,1,7.9,3.3,11.34,11.34,0,0,1,2.9,5.1l38.7-2a23,23,0,0,1,19.4-21.5c-1.8-36.2-3.6-72.5-5.4-108.7a16.35,16.35,0,0,1-9.8-4.6,17.09,17.09,0,0,1-2.1-2.6Zm-9.1-6.1a18.27,18.27,0,0,0-13.4-5.5h0L25,383a11.9,11.9,0,0,1,6.3,2.4,11.8,11.8,0,0,1,2.7,3.2l6.7-3.8a26.4,26.4,0,0,0-3.2-4.1Zm-2.3,28.7a14.34,14.34,0,0,0,2.3-2,18.83,18.83,0,0,0,4.9-18.3l-7.5,4.2a11.19,11.19,0,0,1-4.5,8.6l4.8,7.5Zm235.3-390.9,8.1-.3a15.58,15.58,0,0,1,1.6-2,11.23,11.23,0,0,1,15.9,0,17.41,17.41,0,0,1,1.2,1.4l8.8-.3a18.65,18.65,0,0,0-23.5-11.7,17.57,17.57,0,0,0-7.2,4.5,18,18,0,0,0-4.9,8.4Zm41.1,3.3v1.4a23.35,23.35,0,0,1-13,20.9l25,50.5a11.35,11.35,0,0,1,6.3.7l26.6-67.4a15.66,15.66,0,0,1-2.1-1.7,12.39,12.39,0,0,1-3.3-5.9Zm-17.4,23.9a23.31,23.31,0,0,1-28.4-16.8,20.75,20.75,0,0,1-.7-5.5l-35.9,1.3a12.77,12.77,0,0,1-12.5,10.8,9.7,9.7,0,0,1-1.7-.1l-26.9,81.2a24.22,24.22,0,0,1,13.7,15l112.7-23.5a9.86,9.86,0,0,1-.3-2.4,11.12,11.12,0,0,1,3.3-7.9,20,20,0,0,1,1.6-1.4l-24.9-50.7Zm-24.3-22.4a18.54,18.54,0,0,0,18.6,18.5,14.72,14.72,0,0,0,3.6-.4l-3-6c-.3,0-.7.1-1,.1a11.18,11.18,0,0,1-11.2-11.2,4.87,4.87,0,0,1,.1-1.2Zm26.7,16.6a21.46,21.46,0,0,0,5-3.5,18.46,18.46,0,0,0,5.4-13.1v-1.2l-7.8.3a12.25,12.25,0,0,1,.2,1.9,11.12,11.12,0,0,1-3.3,7.9,10.77,10.77,0,0,1-2.4,1.8Zm262.7,135.9,3.5,5.1a11.33,11.33,0,0,1,3.6-.6,11.72,11.72,0,0,1,4.8,22.4l.7,5.5a17.42,17.42,0,0,0-11.2-33c-.5.2-1,.4-1.4.6Zm8.6,38h-1.5a22.15,22.15,0,0,1-20.8-14.6L464,217.75v.9a15.59,15.59,0,0,1-2.2,7.8l118.7,104.7a13,13,0,0,1,2.6-1.4l-15.2-116Zm-23.5-19.2c-.1-1-.2-2-.2-2.9a22.09,22.09,0,0,1,6.5-15.7,15.37,15.37,0,0,1,1.9-1.7L509.54,111l-.3.3a11.27,11.27,0,0,1-12.2,2.5l-40.1,92.4a20.14,20.14,0,0,1,2.9,2.2,15.52,15.52,0,0,1,3.2,4.8l81.4-18.6Zm10.9-16.3a12,12,0,0,0-1.2,1.1,17.33,17.33,0,0,0-5.1,12.3,12.1,12.1,0,0,0,.1,1.9l5.6-1.3V192a11.73,11.73,0,0,1,3.4-8.3,2.65,2.65,0,0,1,.6-.5l-3.4-4.9Zm-5.1,19.9a17.86,17.86,0,0,0,3.9,5.9,17.33,17.33,0,0,0,12.3,5.1h.9l-.7-5.4h-.2a11.73,11.73,0,0,1-8.3-3.4,13.14,13.14,0,0,1-2.4-3.4l-5.5,1.2Zm-467.1-79.7a13.08,13.08,0,0,1,.7,4.4v.6l71.6,9.7a24.08,24.08,0,0,1,23.5-18.5,26.07,26.07,0,0,1,4.8.5l27-81.3a13.5,13.5,0,0,1-2.7-2l-124.9,86.6Zm-.4,9.6a13.36,13.36,0,0,1-15.1,7.8l-30.1,60.8a11.17,11.17,0,0,1,7.3,7.9l112.3-55.5a24.67,24.67,0,0,1-2.3-10.4v-.9l-72.1-9.7ZM419,438a23,23,0,0,1,20.2,22.8,21.19,21.19,0,0,1-.4,4.4l82.1,17.2a12.44,12.44,0,0,1,1.9-3.6l-91.4-113.6h-.7a10.57,10.57,0,0,1-4-.8L419,438Zm18.3,31.7a23,23,0,0,1-44.1-8.9,9.15,9.15,0,0,1,.1-1.7l-64.5-18.2a13.29,13.29,0,0,1-2.1,2.6,13,13,0,0,1-2.3,1.8l28.6,58.1a13.4,13.4,0,0,1,2-.1,22.92,22.92,0,0,1,22,16.5L515.54,486l-78.2-16.3Zm-43.1-15.3a23.13,23.13,0,0,1,20.1-16.5l7.9-76.5a7.1,7.1,0,0,1-1-1.4l-91.9,67.9a13.9,13.9,0,0,1,1.4,6,21.05,21.05,0,0,1-.2,2.5l63.7,18Zm-199.6,93a11.18,11.18,0,0,1,11.2,11.2,13.44,13.44,0,0,1-.7,4l43.1,18.8a11.12,11.12,0,0,1,10.2-6.5,12.25,12.25,0,0,1,1.9.2l23.9-62.4-110.4-26.9a22.86,22.86,0,0,1-8.5,11.1l27.9,50.6c.5,0,.9-.1,1.4-.1Zm-10.1,6.3a12.47,12.47,0,0,1,2.1-3,15.58,15.58,0,0,1,2-1.6L161,499.15a22.91,22.91,0,0,1-30.1-12.2,24.94,24.94,0,0,1-1.6-5.5l-38.8,2a10.94,10.94,0,0,1-1.4,3.8l51.8,47.4,43.6,19Zm80.1,23.2a21,21,0,0,1,1.7,1.4,10.84,10.84,0,0,1,3.2,6.9l107.1-6.6a11.29,11.29,0,0,1,3.1-5.9,17.38,17.38,0,0,1,1.5-1.3l-12.9-26.3a22.95,22.95,0,0,1-36.2-18.7,12.1,12.1,0,0,1,.1-1.9l-43.5-10.6-24.1,63Zm123-7.5a11.12,11.12,0,0,1,7.9,3.3h0l126-81.6c-.2-.5-.4-.9-.6-1.4l-143,34.9c0,.6.1,1.2.1,1.8a22.73,22.73,0,0,1-6.1,15.5l13.6,27.7a7.49,7.49,0,0,1,2.1-.2ZM333,519.75a23,23,0,0,1,15.2-15.4l-28.1-57.2a15.15,15.15,0,0,1-6,0l-23.8,62.2Zm-179.7-64.6a23,23,0,0,1,21.7,24.2,13.66,13.66,0,0,1-.2,1.9l110.9,27.1,24.1-62.9a12.39,12.39,0,0,1-2.2-1.8,13.49,13.49,0,0,1-3.4-13.6q-74-43.95-148-88l-.1.1a16.48,16.48,0,0,1-8.2,4.4l5.4,108.6Zm219.1-429.5-.6.6a12.25,12.25,0,0,1-8.7,3.6,16.35,16.35,0,0,1-2.2-.2l-27.1,68.5a11.58,11.58,0,0,1,2.9,6.8l155.9-8.7a4.62,4.62,0,0,1,.7-.7h.1l-121-69.9Zm-36.4,84a10.08,10.08,0,0,1-.9,1.8l105.4,95.8a14.65,14.65,0,0,1,9-3.1,15.26,15.26,0,0,1,3,.3l40.5-93.4a11.43,11.43,0,0,1-3-7.7,19.42,19.42,0,0,1,.2-2.4L336,109.65Zm-4.1,5.2a10.41,10.41,0,0,1-4.8,1.8L301.74,260a22.58,22.58,0,0,1,13.9,11.2l119.8-49.3a14.09,14.09,0,0,1,2-11.1l-105.5-95.9Zm-9.5,1.5a11.7,11.7,0,0,1-4.8-2.8,5.24,5.24,0,0,1-1-1.1l-113.8,23.7a24,24,0,0,1-6.9,19.6l-.1.1,87,107a21.64,21.64,0,0,1,12.6-3.7,9.7,9.7,0,0,1,1.7.1q12.75-71.4,25.3-142.9Zm258.2,233.3a11.09,11.09,0,0,1-4.5-6.3l-135.3,15.3a12.27,12.27,0,0,1-2.3,3.3,10.77,10.77,0,0,1-2.4,1.8l90.2,112.1a11.13,11.13,0,0,1,6.7-1.1Zm-4.8-11a10.74,10.74,0,0,1,1.5-4.1l-118.7-104.7a14.43,14.43,0,0,1-9.1,3.2h-.3l-19.8,104.6-.5,5.3a10.87,10.87,0,0,1,1.8-.1,11.21,11.21,0,0,1,11.2,11l133.9-15.2Zm-258.6-49.2,104.1,58.4a11.92,11.92,0,0,1,1.5-1.8,10.59,10.59,0,0,1,1.2-1l.8-8v-.2l19.8-104.6a14.19,14.19,0,0,1-5.3-3.4,17.09,17.09,0,0,1-2.1-2.6l-119.8,49.3a22.75,22.75,0,0,1-.2,13.9Zm102.3,62.9-104.4-58.5a24.78,24.78,0,0,1-3.5,4.5,22.9,22.9,0,0,1-10.8,6.1l16,116h.3a13.33,13.33,0,0,1,9.3,3.7l93-68.7a6.6,6.6,0,0,1-.1-1.4,11.14,11.14,0,0,0,.2-1.7Zm-227.3-193.5a24.15,24.15,0,0,1-13.3,4,12.1,12.1,0,0,1-1.9-.1l-27.2,152.6a16.26,16.26,0,0,1,10.5,11.4L273,287.45a23.09,23.09,0,0,1,6.1-21.5l-86.9-107.1Zm-19.8,3.2a23.89,23.89,0,0,1-10.5-6.2,28.48,28.48,0,0,1-2.3-2.6L44.94,210a11.6,11.6,0,0,1-3,5.4,6.89,6.89,0,0,1-1.3,1.1l94,101.6a16.47,16.47,0,0,1,10.2-3.6h.5q13.5-76.2,27.1-152.4Zm-11.6,169.5a17.11,17.11,0,0,1-1.8,6.6l147.4,87.6c.4-.5.8-.9,1.2-1.4a13.76,13.76,0,0,1,4.7-3.1q-7.95-58.2-16-116.3h-.8a22.85,22.85,0,0,1-16.2-6.7,22.28,22.28,0,0,1-4.5-6.5l-114,39.8ZM34.54,207.35H34l.4.4a.76.76,0,0,1,.1-.4Z"/></g></g></g></g></g></svg>