<svg xmlns="http://www.w3.org/2000/svg" viewBox="0 0 757.76 212.93"><defs><style>.cls-1{isolation:isolate;}</style></defs><g id="Capa_2" data-name="Capa 2"><g id="Capa_1-2" data-name="Capa 1"><g id="Grupo_140" data-name="Grupo 140"><g id="noun_connections_1593255" data-name="noun connections 1593255"><g id="Grupo_69" data-name="Grupo 69"><path id="Trazado_1132" data-name="Trazado 1132" d="M28.44,40.76,72.84,10a4.54,4.54,0,0,1,8.3-3.7l.3.9c4.3-.2,8.7-.3,13-.5a8.27,8.27,0,0,1,16.1-.5l14.3-.5a4.32,4.32,0,0,1,5-3.6,4.4,4.4,0,0,1,3.7,4.3,5.9,5.9,0,0,1-.2,1.4c14.6,8.4,29.3,16.9,43.9,25.3a5,5,0,0,1,1.2-.2,4,4,0,0,1,4,4,4.1,4.1,0,0,1-.1,1.1l15.9,23.3a7.92,7.92,0,0,1,7,14.2,5,5,0,0,1-1.3.5c1.8,13.8,3.6,27.6,5.5,41.4a3.94,3.94,0,0,1,3.6,4.3,4.1,4.1,0,0,1-4,3.7,1.7,1.7,0,0,1-.7-.1c-5.6,14.8-11.3,29.7-16.9,44.5.2.2.5.3.7.5a4,4,0,0,1-5.3,6q-22.5,14.55-45,29.2a4,4,0,1,1-7.5,2.9c-.1-.2-.1-.3-.2-.5l-38.4,2.4a3.89,3.89,0,0,1-5.1,2.4,4.09,4.09,0,0,1-2.7-3.8h0L72,202a4.08,4.08,0,0,1-5.7-.1,3.93,3.93,0,0,1-1.1-2.8V199l-16-7-18.7-17.1a3.94,3.94,0,0,1-5.6-1,4.07,4.07,0,0,1,.4-5.1l-13.5-20.7A8.42,8.42,0,0,1,5,132.66a8.8,8.8,0,0,1,1.5-.5c-.8-7.6-1.7-15.1-2.5-22.7,1.7-10.9,3.4-21.9,5-32.8a4.08,4.08,0,0,1,.1-5.7,3.84,3.84,0,0,1,2.3-1.1c3.7-7.4,7.3-14.8,11-22.1a2.7,2.7,0,0,1-.8-.7,4.65,4.65,0,0,1,0-6.7,4.74,4.74,0,0,1,6.7,0c-.1.2,0,.3.1.4Zm-17.7,105.9L8.94,144a2.49,2.49,0,0,1-.8.1,4,4,0,0,1-4-4,3.37,3.37,0,0,1,1.3-2.7,3.48,3.48,0,0,1,1.5-.7l-.3-2.7a6.75,6.75,0,0,0,3.3,13.1,5.9,5.9,0,0,1,.8-.4ZM8.34,132a8.57,8.57,0,0,1,6,2.5,12.38,12.38,0,0,1,1.4,1.8l30.1-16.9a5.5,5.5,0,0,1,.8-4.8l-34-36.7c-.2,0-.5.1-.7.1a5.85,5.85,0,0,1-1.3-.2l-4.9,31.9,2.5,22.4c-.1-.1,0-.1.1-.1Zm8,5.9a8.38,8.38,0,0,1-2.1,8.6,10.63,10.63,0,0,1-1.1.9L26.64,168a3.53,3.53,0,0,1,1.4-.3,3.63,3.63,0,0,1,2.8,1.2,3.25,3.25,0,0,1,1,1.8l13.8-.7a8.21,8.21,0,0,1,6.9-7.7c-.6-12.9-1.3-25.8-1.9-38.7a5.31,5.31,0,0,1-3.5-1.7c-.3-.3-.5-.6-.8-.9Zm-3.3-2.2a6.73,6.73,0,0,0-4.8-2h0l.3,2.8a4.19,4.19,0,0,1,2.2.8,3.13,3.13,0,0,1,.9,1.1l2.4-1.3a3.32,3.32,0,0,0-1-1.4Zm-.8,10.2a2.7,2.7,0,0,0,.8-.7,6.55,6.55,0,0,0,1.7-6.5l-2.7,1.5a4,4,0,0,1-1.6,3.1l1.8,2.6ZM96,6.66l2.9-.1a4.35,4.35,0,0,1,.6-.7,4,4,0,0,1,5.7,0,1.76,1.76,0,0,1,.4.5l3.1-.1a6.68,6.68,0,0,0-8.4-4.2,7.06,7.06,0,0,0-2.6,1.6,6.38,6.38,0,0,0-1.7,3Zm14.7,1.1v.5a8.23,8.23,0,0,1-4.6,7.4l8.9,18a4.09,4.09,0,0,1,2.2.3l9.5-24a4.35,4.35,0,0,1-.7-.6,4.45,4.45,0,0,1-1.2-2.1Zm-6.2,8.5a8.3,8.3,0,0,1-10.1-6,6.45,6.45,0,0,1-.3-2l-12.8.4a4.45,4.45,0,0,1-4.5,3.8h-.6l-9.6,28.9a8.76,8.76,0,0,1,4.9,5.4l40.2-8.4a2.77,2.77,0,0,1-.1-.9,3.63,3.63,0,0,1,1.2-2.8c.2-.2.4-.3.6-.5l-8.9-17.9Zm-8.7-8a6.66,6.66,0,0,0,6.6,6.6,5.7,5.7,0,0,0,1.3-.1l-1.1-2.1h-.4a4,4,0,0,1-4-4v-.4Zm9.5,6a5.5,5.5,0,0,0,1.8-1.3,6.65,6.65,0,0,0,1.9-4.7v-.4l-2.8.1c0,.2.1.5.1.7a3.63,3.63,0,0,1-1.2,2.8,3.11,3.11,0,0,1-.9.7Zm93.6,48.4,1.2,1.8a5.07,5.07,0,0,1,1.3-.2,4.23,4.23,0,0,1,4.2,4.2,4.27,4.27,0,0,1-2.5,3.8l.3,2a6.23,6.23,0,0,0-4-11.8,1.69,1.69,0,0,0-.5.2Zm3.1,13.5h-.5a7.89,7.89,0,0,1-7.4-5.2L165,77.56v.3a5.66,5.66,0,0,1-.8,2.8l42.3,37.3a4.05,4.05,0,0,1,.9-.5L202,76.16Zm-8.4-6.8c0-.3-.1-.7-.1-1a7.87,7.87,0,0,1,2.3-5.6,4.35,4.35,0,0,1,.7-.6l-15.4-22.5-.1.1a4.05,4.05,0,0,1-4.3.9l-14.3,32.9a3.92,3.92,0,0,1,1,.8,4.52,4.52,0,0,1,1.1,1.7l29.1-6.7Zm3.9-5.8c-.2.1-.3.3-.4.4a6,6,0,0,0-1.8,4.4v.7l2-.5v-.1a4.23,4.23,0,0,1,1.2-3l.2-.2-1.2-1.7Zm-1.8,7.1a6,6,0,0,0,1.4,2.1,6,6,0,0,0,4.4,1.8h.3l-.3-1.9h-.1a3.85,3.85,0,0,1-2.9-1.2,4.18,4.18,0,0,1-.8-1.2l-2,.4ZM29.34,42.26a4.15,4.15,0,0,1,.3,1.6v.2l25.5,3.5a8.57,8.57,0,0,1,8.4-6.6,9.85,9.85,0,0,1,1.7.2l9.6-29a3.59,3.59,0,0,1-1-.7l-44.5,30.8Zm-.2,3.4a4.68,4.68,0,0,1-4.4,2.9,3.4,3.4,0,0,1-1-.1L13,70.16a3.87,3.87,0,0,1,2.6,2.8l40-19.8a9.46,9.46,0,0,1-.8-3.7v-.3l-25.7-3.5Zm119.8,110.4a8.2,8.2,0,0,1,7.2,8.1,4.4,4.4,0,0,1-.2,1.6l29.2,6.1a5.39,5.39,0,0,1,.7-1.3l-32.5-40.4h-.2a3.19,3.19,0,0,1-1.4-.3l-2.8,26.2Zm6.6,11.3a8.1,8.1,0,0,1-10.7,4.3,8.19,8.19,0,0,1-5-7.5v-.6l-23-6.5a3.11,3.11,0,0,1-.7.9,5.72,5.72,0,0,1-.8.7l10.2,20.7h.7a8.13,8.13,0,0,1,7.8,5.9l49.3-12-27.8-5.9Zm-15.4-5.5a8.26,8.26,0,0,1,7.2-5.9l2.8-27.2c-.1-.2-.3-.3-.4-.5L117,152.46a5.45,5.45,0,0,1,.5,2.2,2.77,2.77,0,0,1-.1.9l22.7,6.3ZM69,195.06a4,4,0,0,1,4,4,3.19,3.19,0,0,1-.3,1.4l15.3,6.7a4.08,4.08,0,0,1,3.6-2.3,1.7,1.7,0,0,1,.7.1l8.5-22.2-39.3-9.6a8.52,8.52,0,0,1-3,4l10,18a.9.9,0,0,1,.5-.1Zm-3.6,2.2a4.44,4.44,0,0,1,.8-1.1c.2-.2.5-.4.7-.6l-9.8-17.8a8.12,8.12,0,0,1-10.7-4.3,7,7,0,0,1-.6-1.9l-13.8.7a3.94,3.94,0,0,1-.5,1.4l18.4,16.9,15.5,6.7Zm28.5,8.3a2.65,2.65,0,0,1,.6.5,4,4,0,0,1,1.2,2.5l38.1-2.3a3.6,3.6,0,0,1,1.1-2.1c.2-.2.4-.3.5-.5l-4.6-9.4a8.18,8.18,0,0,1-11.4-2,8,8,0,0,1-1.5-4.7v-.7l-15.5-3.8-8.5,22.5Zm43.9-2.7a3.63,3.63,0,0,1,2.8,1.2h0l44.9-29.1c-.1-.2-.2-.3-.2-.5l-51,12.4v.7a8,8,0,0,1-2.2,5.5l4.8,9.9a3.08,3.08,0,0,1,.9-.1Zm-19.5-17.6a8.26,8.26,0,0,1,5.4-5.5l-10-20.4a5,5,0,0,1-2.1,0l-8.5,22.2Zm-64-23.1a8.1,8.1,0,0,1,7.7,8.6,2,2,0,0,1-.1.7l39.5,9.6,8.6-22.4c-.3-.2-.5-.4-.8-.6a4.89,4.89,0,0,1-1.2-4.9c-17.6-10.4-35.2-20.9-52.7-31.3h0a6.38,6.38,0,0,1-2.9,1.6l1.9,38.7Zm78.1-153c-.1.1-.1.2-.2.2a4.39,4.39,0,0,1-3.1,1.3,2.2,2.2,0,0,1-.8-.1L118.74,35a3.69,3.69,0,0,1,1,2.4l55.5-3.1c.1-.1.2-.2.2-.3h0l-43-24.8Zm-13,29.9a4.88,4.88,0,0,0-.3.7l37.6,34.1a5.17,5.17,0,0,1,3.2-1.1,4.1,4.1,0,0,1,1.1.1l14.4-33.3a3.86,3.86,0,0,1-1.1-2.7,2,2,0,0,1,.1-.8l-55,3Zm-1.5,1.9a5.09,5.09,0,0,1-1.7.7l-9,51a8.28,8.28,0,0,1,5,4l42.7-17.6a5.13,5.13,0,0,1,.7-4L117.94,41Zm-3.4.5a4.25,4.25,0,0,1-1.7-1c-.1-.1-.2-.3-.3-.4L72,48.56a8.31,8.31,0,0,1-2.5,7h0l31,38.1a7.89,7.89,0,0,1,4.5-1.3h.6c2.9-16.9,5.9-33.9,8.9-50.9Zm92,83.2a4,4,0,0,1-1.6-2.2l-48.2,5.4a8.34,8.34,0,0,1-.8,1.2,2.1,2.1,0,0,1-.8.6l32.1,39.9a4,4,0,0,1,2.4-.4Zm-1.7-4a8.8,8.8,0,0,1,.5-1.5L163,81.86a5.39,5.39,0,0,1-3.2,1.1h-.1l-7.1,37.2-.2,1.9c.2,0,.4-.1.6,0a4,4,0,0,1,4,3.9l47.8-5.3Zm-92.1-17.5,37.1,20.8c.2-.2.3-.4.5-.6l.4-.4.3-2.8v-.1l7.1-37.3a7.61,7.61,0,0,1-1.9-1.2,5.5,5.5,0,0,1-.7-.9l-42.7,17.6a8.2,8.2,0,0,1-.1,4.9Zm36.4,22.4-37.2-20.9a9.55,9.55,0,0,1-1.2,1.6,8.64,8.64,0,0,1-3.8,2.2l5.7,41.3h.1a5.07,5.07,0,0,1,3.3,1.3l33.1-24.5v-1Zm-81-68.9a8.89,8.89,0,0,1-4.7,1.4h-.7L53,112.36a5.49,5.49,0,0,1,3.7,4.1l40.2-14a8.12,8.12,0,0,1,2.2-7.7l-31-38.1Zm-7,1.1a9.72,9.72,0,0,1-3.8-2.2,6.47,6.47,0,0,1-.8-.9l-40.9,20.2a3.68,3.68,0,0,1-1.1,1.9,2.18,2.18,0,0,1-.5.4l33.5,36.2a5.88,5.88,0,0,1,3.6-1.3h.2q4.95-27.15,9.8-54.3ZM57,118.16a4.76,4.76,0,0,1-.7,2.3l52.5,31.2c.1-.2.3-.3.4-.5a5,5,0,0,1,1.7-1.1l-5.7-41.4h-.3a8.43,8.43,0,0,1-5.8-2.4,8.68,8.68,0,0,1-1.6-2.3L57,118.16ZM12,74h-.2l.1.1A.1.1,0,0,1,12,74Z"/></g></g><g class="cls-1"><path d="M312,85.41v6.1c0,6.2-3.7,9.7-10.7,9.8-22.2.3-23.1,2.2-23.1,10.1v59.3c0,6.2-3.5,9.7-9.7,9.7h-10.4c-6.2,0-9.7-3.5-9.7-9.7v-63.5c0-24.2,8.7-30.7,53.3-31.4C308.36,75.71,312,79,312,85.41Z"/><path d="M328.36,47.11c0-10.1,5.5-16.4,16.4-16.4s16.4,6.2,16.4,16.4-5.4,16.1-16.4,16.1S328.36,57.21,328.36,47.11Zm1.4,123.6V86.41c0-6.2,3.5-9.7,9.7-9.7h10.4c6.2,0,9.7,3.5,9.7,9.7v84.3c0,6.2-3.5,9.7-9.7,9.7h-10.4C333.26,180.41,329.76,176.91,329.76,170.71Z"/><path d="M442.66,100.81H414v41.4c0,10.8,4.7,15.3,16.4,15.3,5.6,0,9.2-1.2,12.9-1.2,6.5,0,9.1,2.5,9.1,7.7v5.3c0,5.4-2.5,9.3-7.8,10.3-33.5,8-60.3-.5-60.3-37.5V62.31c0-6.2,3.5-9.7,9.7-9.7h10.4c6.2,0,9.7,3.5,9.7,9.7v14.3h28.7c6.2,0,9.7,3.5,9.7,9.7v4.6C452.36,97.31,448.86,100.81,442.66,100.81Z"/><path d="M570.66,128.51v42.2c0,6.2-3.5,9.7-9.7,9.7h-9.9c-6.2,0-9.7-3.5-9.7-9.7v-42.2c0-22.4-8.2-29.1-28.7-29.1-4.5,0-9.7.3-15.6.7v70.6c0,6.2-3.5,9.7-9.7,9.7h-9.9c-6.2,0-9.7-3.5-9.7-9.7V42.41c0-6.2,3.5-9.7,9.7-9.7h9.9c6.2,0,9.7,3.5,9.7,9.7v33q7.65-.6,14.7-.6C548.66,74.81,570.66,88.31,570.66,128.51Z"/><path d="M757.76,122.81v47.9c0,6.2-3.5,9.7-9.7,9.7h-9.4c-6.2,0-9.7-3.5-9.7-9.7v-49.4c0-15.1-6.4-21.8-20.4-21.8s-19.1,6.8-19.1,21.8v49.4c0,6.2-3.5,9.7-9.7,9.7h-9.3c-6.2,0-9.7-3.5-9.7-9.7v-49.4c0-15.1-5.2-21.8-19.1-21.8s-20.4,6.8-20.4,21.8v49.4c0,6.2-3.5,9.7-9.7,9.7h-9.4c-6.2,0-9.7-3.5-9.7-9.7v-47.9c0-35.2,18.3-48,46.6-48,18.8,0,29.8,5.4,36,14.9,6.1-9.5,17.2-14.9,35.9-14.9C739.56,74.81,757.76,87.61,757.76,122.81Z"/></g></g></g></g></svg>