<svg id="Layer_1" data-name="Layer 1" xmlns="http://www.w3.org/2000/svg" xmlns:xlink="http://www.w3.org/1999/xlink" viewBox="0 0 490.39 203.48"><defs><style>.cls-1{fill:#fff;}.cls-2{fill:url(#linear-gradient);}</style><linearGradient id="linear-gradient" x1="30.43" y1="36.58" x2="133.22" y2="145.79" gradientUnits="userSpaceOnUse"><stop offset="0" stop-color="#667080"/><stop offset="1" stop-color="#1d4d91"/></linearGradient></defs><path class="cls-1" d="M216.68,83.61v3.48c0,3.53-2.1,5.5-6.05,5.56-12.57.18-13.11,1.26-13.11,5.75v33.65c0,3.53-2,5.51-5.51,5.51h-5.92c-3.54,0-5.51-2-5.51-5.51V96c0-13.71,4.91-17.43,30.23-17.85C214.64,78.1,216.68,80,216.68,83.61Z"/><path class="cls-1" d="M226,61.88c0-5.75,3.12-9.28,9.28-9.28s9.28,3.53,9.28,9.28-3,9.16-9.28,9.16S226,67.63,226,61.88Zm.78,70.17V84.21c0-3.53,2-5.51,5.51-5.51h5.93c3.53,0,5.5,2,5.5,5.51v47.84c0,3.53-2,5.51-5.5,5.51H232.3C228.77,137.56,226.79,135.58,226.79,132.05Z"/><path class="cls-1" d="M290.85,92.35H274.56v23.47c0,6.11,2.7,8.68,9.28,8.68,3.18,0,5.21-.65,7.31-.65,3.71,0,5.15,1.43,5.15,4.37v3c0,3-1.44,5.27-4.43,5.87-19,4.55-34.25-.3-34.25-21.26V70.56c0-3.53,2-5.51,5.51-5.51h5.93c3.53,0,5.5,2,5.5,5.51V78.7h16.29c3.53,0,5.51,2,5.51,5.51v2.64C296.36,90.38,294.38,92.35,290.85,92.35Z"/><path class="cls-1" d="M363.47,108.1v24c0,3.53-2,5.51-5.51,5.51h-5.63c-3.53,0-5.51-2-5.51-5.51v-24c0-12.69-4.67-16.52-16.28-16.52-2.58,0-5.51.18-8.86.41v40.06c0,3.53-2,5.51-5.51,5.51h-5.63c-3.53,0-5.51-2-5.51-5.51V59.25c0-3.54,2-5.51,5.51-5.51h5.63c3.53,0,5.51,2,5.51,5.51V78c2.87-.23,5.68-.35,8.32-.35C351,77.63,363.47,85.29,363.47,108.1Z"/><path class="cls-1" d="M469.67,104.87v27.18c0,3.53-2,5.51-5.51,5.51h-5.33c-3.53,0-5.51-2-5.51-5.51V104c0-8.56-3.65-12.39-11.55-12.39S430.93,95.47,430.93,104v28c0,3.53-2,5.51-5.51,5.51h-5.26c-3.54,0-5.51-2-5.51-5.51V104c0-8.56-2.94-12.39-10.84-12.39S392.26,95.47,392.26,104v28c0,3.53-2,5.51-5.51,5.51h-5.33c-3.53,0-5.51-2-5.51-5.51V104.87c0-20,10.36-27.24,26.46-27.24,10.66,0,16.89,3.05,20.42,8.44,3.47-5.39,9.76-8.44,20.36-8.44C459.31,77.63,469.67,84.87,469.67,104.87Z"/><path class="cls-2" d="M162,85.37a8.44,8.44,0,0,0-15.59.79,5.22,5.22,0,0,1-9.85-3.45l5.54-15.57a8.44,8.44,0,0,0-.32-6.47,8.13,8.13,0,0,0-2.69-3.22c-.18-.13-.36-.26-.56-.38a7.85,7.85,0,0,0-1.67-.81,8.45,8.45,0,0,0-10.77,5.15l-5.82,16.37a5.23,5.23,0,0,1-10.1-2.41l14-39.39a8.57,8.57,0,0,0-.31-6.46v0a8.26,8.26,0,0,0-4.16-4,5.86,5.86,0,0,0-1.38-.5l-.11,0a8.47,8.47,0,0,0-10,5.36L87.8,87.58a5.23,5.23,0,0,1-10.1-2.4L90.63,48.83a8.37,8.37,0,0,0-3-9.7,5.85,5.85,0,0,0-.55-.37h0a7.91,7.91,0,0,0-1.6-.77A8.45,8.45,0,0,0,74.62,43.1L53.86,101.44a5.21,5.21,0,0,1-9.81-3.53L59.26,55.15a8.45,8.45,0,0,0-15.93-5.66L34.21,75.13,34,75.8l-6.41,18,0,.11c-.05.19-.12.36-.18.55L21.2,111.69a8.42,8.42,0,0,0,5.15,10.78,8.45,8.45,0,0,0,10.78-5.11A5.22,5.22,0,0,1,47,120.81l-5.54,15.57a8.45,8.45,0,0,0,.31,6.47A8.28,8.28,0,0,0,44.42,146l.21.16.11.08.3.18A8.42,8.42,0,0,0,57.33,142L71,103.5a6.08,6.08,0,0,1,.46-1A5.23,5.23,0,0,1,80.91,107L59.35,167.54a8.59,8.59,0,0,0,.32,6.47,8.31,8.31,0,0,0,4.09,4l.29.13.08,0,.33.12a7.84,7.84,0,0,0,.83.25,8.43,8.43,0,0,0,9.94-5.39l28.29-79.51a6.17,6.17,0,0,1,.44-1,5.23,5.23,0,0,1,9.42,4.42L92.91,154.68a8.42,8.42,0,0,0,.31,6.48,8.28,8.28,0,0,0,2.67,3.19l0,0a3.62,3.62,0,0,0,.51.35l.09.05.07,0a8.26,8.26,0,0,0,1.55.75,8.46,8.46,0,0,0,10.79-5.14l20.76-58.35a5.21,5.21,0,0,1,9.81,3.54l-15.21,42.75a8.43,8.43,0,0,0,5.12,10.77A8.47,8.47,0,0,0,140.2,154l9.12-25.66a4.32,4.32,0,0,1,.19-.45l6.49-18.2.06-.22a2.35,2.35,0,0,1,.14-.45l6.12-17.22A8.38,8.38,0,0,0,162,85.37Z"/></svg>